<?xml version="1.0" encoding="UTF-8"?>
<svg width="302px" height="70px" viewBox="0 0 302 70" version="1.1" xmlns="http://www.w3.org/2000/svg" xmlns:xlink="http://www.w3.org/1999/xlink">
    <!-- Generator: Sketch 44 (41411) - http://www.bohemiancoding.com/sketch -->
    <title>Group</title>
    <desc>Created with Sketch.</desc>
    <defs></defs>
    <g id="Page-1" stroke="none" stroke-width="1" fill="none" fill-rule="evenodd">
        <g id="Desktop-HD" transform="translate(-570.000000, -52.000000)">
            <g id="Group" transform="translate(570.000000, 52.000000)">
                <path d="M17.4874,53 L5.4842,53 C2.006,53 0.3692,51.3632 0.3692,47.885 L0.3692,9.8294 C0.3692,6.3512 2.006,4.7144 5.4842,4.7144 L17.4874,4.7144 C30.1044,4.7144 44.1536,10.716 44.1536,28.8572 C44.1536,45.7708 30.1044,53 17.4874,53 Z M8.9624,12.08 L8.9624,45.498 L16.1234,45.498 C24.9894,45.498 34.9466,41.8834 34.9466,28.8572 C34.9466,15.0126 24.9894,12.08 16.1234,12.08 L8.9624,12.08 Z M72.252,38.0642 L70.4106,38.0642 C65.2274,38.0642 57.93,38.678 57.93,43.5202 C57.93,46.6574 60.8626,47.6122 63.6588,47.6122 C69.2512,47.6122 72.252,44.4068 72.252,39.2236 L72.252,38.0642 Z M80.0268,49.3172 C80.0268,53 77.4352,53.6138 76.2076,53.6138 C74.98,53.6138 72.3884,53 72.3884,49.3172 L72.3884,48.8398 L72.1838,48.8398 C70.547,51.7042 66.6596,53.8184 62.022,53.8184 C56.7706,53.8184 49.746,51.295 49.746,43.6566 C49.746,33.904 62.022,32.54 72.252,32.54 L72.252,31.7216 C72.252,27.6978 68.842,25.72 64.75,25.72 C62.2266,25.72 59.976,26.743 57.6572,28.1752 C56.8388,28.6526 56.0886,28.8572 55.4748,28.8572 C53.7698,28.8572 52.4058,27.4932 52.4058,25.72 C52.4058,24.697 52.815,23.6058 54.3154,22.5828 C57.3844,20.4686 61.34,19.3092 65.432,19.3092 C77.1624,19.3092 80.0268,26.5384 80.0268,33.0856 L80.0268,49.3172 Z M99.0546,9.1474 C99.0546,6.3512 96.7358,4.237 93.735,4.237 C90.7342,4.237 88.5518,6.5558 88.5518,9.1474 C88.5518,11.739 90.7342,14.0578 93.735,14.0578 C96.7358,14.0578 99.0546,11.9436 99.0546,9.1474 Z M97.8952,49.0444 L97.8952,24.2196 C97.8952,20.3322 95.1672,19.6502 93.8032,19.6502 C92.4392,19.6502 89.7112,20.3322 89.7112,24.2196 L89.7112,49.0444 C89.7112,52.9318 92.4392,53.6138 93.8032,53.6138 C95.1672,53.6138 97.8952,52.9318 97.8952,49.0444 Z M107.9888,49.0444 C107.9888,52.9318 110.7168,53.6138 112.0808,53.6138 C113.4448,53.6138 116.1728,52.9318 116.1728,49.0444 L116.1728,5.3964 C116.1728,1.509 113.4448,0.827 112.0808,0.827 C110.7168,0.827 107.9888,1.509 107.9888,5.3964 L107.9888,49.0444 Z M154.774,25.5836 C155.1832,24.4924 155.2514,23.8104 155.2514,23.333 C155.2514,21.1506 153.5464,19.6502 151.2276,19.6502 C149.8636,19.6502 148.2268,20.264 147.2038,23.0602 L139.5654,44.0658 L139.429,44.0658 L130.563,22.8556 C129.4718,20.264 127.9032,19.6502 126.471,19.6502 C124.084,19.6502 122.379,21.3552 122.379,23.4694 C122.379,24.015 122.5154,24.9016 122.9246,25.8564 L135.2688,53 L133.632,57.1602 C132.1316,60.9112 130.0174,62.2752 127.835,62.2752 C127.2894,62.2752 126.9484,62.2752 126.5392,62.3434 C124.9024,62.6162 123.8112,64.0484 123.8112,65.6852 C123.8112,67.322 124.8342,69.368 128.3124,69.368 C135.337,69.368 138.2696,66.0262 140.7248,60.0246 L154.774,25.5836 Z" id="Quiz" fill="#FFFFFF"></path>
                <path d="M166.6408,4.7144 L177.28,4.7144 C188.3284,4.7144 195.4894,8.6018 195.4894,18.6954 C195.4894,29.3346 186.9644,33.0174 176.7344,33.0174 L170.119,33.0174 L170.119,48.7716 C170.119,52.8636 167.2546,53.6138 165.8224,53.6138 C164.3902,53.6138 161.5258,52.8636 161.5258,48.7716 L161.5258,9.8294 C161.5258,6.3512 163.1626,4.7144 166.6408,4.7144 Z M170.119,11.9436 L170.119,25.7882 L176.1206,25.7882 C181.713,25.7882 186.828,24.4242 186.828,18.6954 C186.828,12.9666 181.713,11.9436 176.3934,11.9436 L170.119,11.9436 Z" id="Combined-Shape" fill="#21D3D8"></path>
                <path d="M210.9026,49.0444 L210.9026,36.2228 C210.9026,30.7668 213.8352,26.8794 219.0184,26.8794 C222.1556,26.8794 223.4514,25.038 223.4514,22.9238 C223.4514,20.5368 221.6782,19.3092 219.223,19.3092 C215.2674,19.3092 211.9938,22.1736 210.698,25.72 L210.5616,25.72 L210.5616,24.015 C210.5616,20.3322 207.9018,19.6502 206.606,19.6502 C205.3784,19.6502 202.7186,20.3322 202.7186,24.015 L202.7186,49.0444 C202.7186,52.9318 205.4466,53.6138 206.8106,53.6138 C208.1746,53.6138 210.9026,52.9318 210.9026,49.0444 Z" id="Path" fill="#21D3D8"></path>
                <path d="M254.4142,39.2236 L233.8178,39.2236 C234.1588,43.8612 238.3872,47.2712 243.1612,47.2712 C246.5712,47.2712 248.6172,46.18 250.6632,44.475 C251.8226,43.5202 252.5728,43.3156 253.4594,43.3156 C255.3008,43.3156 256.733,44.6114 256.733,46.5892 C256.733,47.2712 256.4602,48.4988 255.369,49.5218 C252.1636,52.5908 248.4808,53.9548 243.2294,53.9548 C233.1358,53.9548 225.6338,47.4758 225.6338,36.8366 C225.6338,26.2656 233.0676,19.3092 242.9566,19.3092 C250.8678,19.3092 257.2786,23.8104 258.5744,33.4266 C258.6426,34.1086 258.7108,34.586 258.7108,35.1316 C258.7108,37.996 257.1422,39.2236 254.4142,39.2236 Z M233.8178,33.3584 L250.595,33.3584 C250.595,29.13 248.208,25.4472 242.8884,25.4472 C238.0462,25.4472 234.1588,28.789 233.8178,33.3584 Z" id="Combined-Shape" fill="#21D3D8"></path>
                <path d="M301.9496,36.4956 C301.9496,46.0436 295.8116,53.9548 285.8544,53.9548 C281.285,53.9548 277.1248,51.9088 275.0106,48.6352 L274.8742,48.6352 L274.8742,65.4124 C274.8742,69.2998 272.1462,69.9818 270.7822,69.9818 C269.4182,69.9818 266.6902,69.2998 266.6902,65.4124 L266.6902,24.015 C266.6902,20.3322 269.35,19.6502 270.5776,19.6502 C271.8734,19.6502 274.5332,20.3322 274.5332,24.015 L274.5332,24.8334 L274.7378,24.8334 C276.3746,22.2418 280.0574,19.3092 286.059,19.3092 C295.4024,19.3092 301.9496,26.8112 301.9496,36.4956 Z M293.6292,36.4956 C293.6292,31.3806 290.5602,25.9928 284.2176,25.9928 C278.216,25.9928 274.6014,31.517 274.6014,36.632 C274.6014,41.747 278.216,47.1348 284.2176,47.1348 C290.5602,47.1348 293.6292,41.6106 293.6292,36.4956 Z" id="Combined-Shape" fill="#21D3D8"></path>
            </g>
        </g>
    </g>
</svg>